<svg width="135" height="127" viewBox="0 0 135 127" fill="none" xmlns="http://www.w3.org/2000/svg">
<path d="M33.9804 54.6474C37.6481 55.0789 40.2641 56.3194 41.8282 58.3691C43.3924 60.3647 44.1745 62.7919 44.1745 65.6506C44.1745 67.4305 43.9048 69.1295 43.3654 70.7476C42.8261 72.3118 42.1788 73.6602 41.4237 74.7929C40.6686 75.8716 40.0213 76.5728 39.482 76.8965C37.3245 78.2988 30.7442 79 19.741 79H4.04528V32.8838H23.0581C27.3731 32.8838 30.852 33.1265 33.4949 33.6119C36.1918 34.0434 38.3763 35.0682 40.0483 36.6863C41.7204 38.2505 42.5564 40.6507 42.5564 43.8869C42.5564 46.6917 41.8552 48.957 40.4528 50.683C39.1044 52.409 36.9469 53.5956 33.9804 54.2429V54.6474ZM27.5079 42.6734C26.9686 42.134 26.3213 41.8104 25.5662 41.7025C24.865 41.5407 23.7323 41.4598 22.1682 41.4598C20.604 41.4598 19.4174 41.4867 18.6083 41.5407V51.4112H19.4174C19.687 51.4112 20.8197 51.4112 22.8154 51.4112C24.8111 51.4112 26.1325 51.2763 26.7798 51.0066C27.2652 50.7909 27.6967 50.2246 28.0743 49.3076C28.5058 48.3907 28.7215 47.3929 28.7215 46.3141C28.7215 44.696 28.317 43.4824 27.5079 42.6734ZM28.8833 69.6958C29.2609 69.3722 29.5575 68.7789 29.7733 67.9159C30.043 66.999 30.1778 66.0821 30.1778 65.1651C30.1778 64.0325 30.016 62.9807 29.6924 62.0098C29.4227 60.985 29.0451 60.2569 28.5597 59.8254C28.0743 59.3399 27.3731 59.0163 26.4562 58.8545C25.5932 58.6927 24.1099 58.6118 22.0063 58.6118C20.6579 58.6118 19.5252 58.6387 18.6083 58.6927V70.424C21.1433 70.4779 23.4087 70.451 25.4044 70.3431C27.4 70.1813 28.5597 69.9655 28.8833 69.6958ZM50.104 32.8838H83.1944V42.9161H64.667V52.0584H79.9582V60.8771H64.667V79H50.104V32.8838Z" fill="white"/>
<path d="M69.1105 93.3289C69.0071 92.975 68.9566 92.6607 68.9587 92.386C68.9535 92.0861 68.9894 91.6922 69.0664 91.2042C69.1698 90.9005 69.346 90.3292 69.595 89.4904C69.8693 88.6443 70.1452 87.7566 70.4227 86.8274C70.7254 85.891 71.005 85.0159 71.2614 84.2024C71.5357 83.3563 71.7209 82.7688 71.8169 82.4398C71.9487 82.0456 72.0743 81.8178 72.1934 81.7561C72.3126 81.6944 72.5494 81.6127 72.9038 81.5109C73.1316 81.4454 73.3757 81.3889 73.6362 81.3415C73.922 81.2868 74.1509 81.4128 74.3228 81.7196C74.2193 82.681 73.9782 83.6409 73.5995 84.5992C73.2387 85.5249 72.8779 86.4507 72.5171 87.3764C72.1816 88.2949 71.9168 89.2205 71.7226 90.1531C71.5211 91.0605 71.5531 91.9693 71.8188 92.8794C71.9201 92.8503 72.0756 92.8193 72.2855 92.7864C72.5207 92.7462 72.7685 92.7024 73.029 92.6549C73.2895 92.6075 73.5247 92.5673 73.7346 92.5344C73.9698 92.4942 74.1343 92.4469 74.2282 92.3925C74.3727 92.3236 74.611 92.2003 74.9433 92.0226C75.2934 91.8124 75.6562 91.5985 76.0317 91.381C76.4325 91.1562 76.808 90.9387 77.1581 90.7285C77.5083 90.5183 77.7519 90.366 77.8891 90.2718C77.9038 90.3224 77.9296 90.4109 77.9665 90.5373C78.0214 90.6311 78.0562 90.7033 78.0709 90.7539C78.2185 91.2595 78.0998 91.7458 77.7148 92.2127C77.3551 92.6722 76.8884 93.0941 76.3146 93.4782C75.7588 93.8297 75.1629 94.138 74.5269 94.403C73.9089 94.6354 73.4227 94.8025 73.0683 94.9043C72.6886 95.0134 72.2852 95.0883 71.8581 95.1288C71.4489 95.1368 71.0629 95.0833 70.7001 94.9683C70.3373 94.8534 70.0104 94.6733 69.7194 94.4281C69.4463 94.1504 69.2433 93.784 69.1105 93.3289ZM73.6726 67.9314C74.0017 67.8368 74.3091 67.7622 74.5949 67.7075C74.8807 67.6527 75.1396 67.6468 75.3716 67.6898C75.6037 67.7327 75.8125 67.8371 75.9981 68.003C76.1837 68.1689 76.3281 68.4288 76.4314 68.7827C76.4757 68.9344 76.5237 69.0987 76.5753 69.2757C76.627 69.4527 76.6533 69.6369 76.6544 69.8284C76.6733 69.9874 76.6506 70.1446 76.5863 70.3001C76.5145 70.4304 76.3648 70.5282 76.137 70.5937C75.7826 70.6955 75.4546 70.6527 75.153 70.4654C74.8767 70.2708 74.64 70.0237 74.4428 69.7241C74.2382 69.3993 74.0716 69.0635 73.943 68.7168C73.8144 68.3702 73.7243 68.1084 73.6726 67.9314ZM97.3679 87.9213C96.887 88.0595 96.4182 88.0983 95.9615 88.0378C95.5302 87.9699 95.14 87.808 94.7909 87.5521C94.4419 87.2962 94.1577 86.9805 93.9384 86.6051C93.7117 86.2044 93.5915 85.7457 93.5778 85.229C93.3417 84.42 93.2632 83.6342 93.3424 82.8716C93.4395 82.0764 93.573 81.3119 93.7429 80.578C93.9307 79.8116 94.0716 79.0723 94.1655 78.3603C94.2774 77.6157 94.2264 76.8768 94.0124 76.1436C93.4555 76.3037 92.9123 76.6516 92.3828 77.1873C91.8533 77.7231 91.3444 78.3763 90.856 79.1469C90.3929 79.9103 89.952 80.7494 89.5332 81.6644C89.1323 82.5469 88.7605 83.4347 88.4176 84.3279C88.0927 85.1885 87.8237 86.0057 87.6105 86.7794C87.4227 87.5458 87.2903 88.173 87.2133 88.661C87.17 88.7008 87.0508 88.7625 86.8557 88.846C86.6532 88.9042 86.5267 88.9405 86.476 88.9551C86.1301 89.2737 85.877 89.3464 85.7167 89.1733C85.5743 88.9676 85.4747 88.6263 85.4178 88.1494C85.3862 87.6652 85.3905 87.116 85.4307 86.5016C85.4634 85.8619 85.4946 85.2638 85.5242 84.7073C85.5717 84.1182 85.5981 83.6447 85.6035 83.287C85.6014 82.9039 85.5624 82.7233 85.4865 82.7451C85.5329 82.6222 85.5735 82.4324 85.6083 82.1758C85.6432 81.9192 85.6743 81.6499 85.7018 81.368C85.7292 81.0861 85.7514 80.8331 85.7683 80.609C85.7778 80.3596 85.7641 80.1718 85.7272 80.0453C85.6608 79.8178 85.5316 79.7042 85.3397 79.7046C85.1657 79.6724 85.0027 79.6781 84.8509 79.7217C84.3215 79.5999 83.8721 79.8934 83.5029 80.6023C83.1517 81.2787 82.8199 82.2098 82.5076 83.3957C82.2132 84.549 81.8998 85.8721 81.5674 87.3651C81.253 88.8256 80.8515 90.27 80.3631 91.6982C79.7809 91.8655 79.3158 91.917 78.9678 91.8526C78.6197 91.7882 78.3572 91.4526 78.1801 90.8459C78.3014 90.5096 78.4539 89.904 78.6375 89.0292C78.8137 88.1291 79.0184 87.1386 79.2516 86.0577C79.4848 84.9768 79.7396 83.876 80.0161 82.7553C80.3178 81.6273 80.6259 80.6619 80.9403 79.8591C81.2726 79.0237 81.608 78.4341 81.9466 78.0902C82.3031 77.7137 82.678 77.7293 83.0714 78.1369C83.4205 77.7351 83.8187 77.3604 84.2659 77.0126C84.7384 76.6576 85.2404 76.4038 85.772 76.251C86.1263 76.1492 86.4506 76.1793 86.7449 76.3413C87.057 76.4709 87.3243 76.6818 87.5468 76.9741C87.7873 77.2338 87.9971 77.5297 88.1763 77.8618C88.3482 78.1687 88.471 78.4485 88.5448 78.7013C88.7716 78.4443 89.1387 78.01 89.646 77.3984C90.1713 76.7542 90.7346 76.0991 91.3358 75.4331C91.9623 74.7598 92.582 74.157 93.1948 73.6247C93.8255 73.0598 94.3687 72.7119 94.8243 72.5809C95.2293 72.4646 95.6153 72.518 95.9823 72.7414C96.3672 72.9322 96.6224 73.2425 96.7478 73.6723C96.486 76.1589 96.2849 78.1486 96.1444 79.6413C96.0293 81.1266 95.9938 82.274 96.038 83.0834C96.1002 83.8602 96.2551 84.3911 96.5029 84.6761C96.7687 84.9286 97.1425 85.0815 97.6245 85.1348C98.3079 84.9384 98.9328 84.6355 99.4992 84.2261C100.066 83.8167 100.612 83.3857 101.138 82.933C101.69 82.4731 102.249 82.0384 102.815 81.629C103.382 81.2197 104.019 80.9131 104.728 80.7095C104.809 80.9876 104.811 81.2748 104.733 81.5713C104.672 81.8352 104.522 82.0704 104.28 82.2768C104.114 82.4614 103.806 82.7691 103.356 83.2C102.924 83.5982 102.448 84.0364 101.929 84.5143C101.403 84.967 100.902 85.4124 100.426 85.8505C99.9757 86.2814 99.6513 86.5801 99.453 86.7467C99.0132 87.1197 98.6651 87.3841 98.4088 87.54C98.1705 87.6633 97.8235 87.7904 97.3679 87.9213ZM103.766 107.867C103.345 106.426 103.222 105.064 103.396 103.781C103.545 102.505 103.881 101.258 104.403 100.039C104.933 98.8457 105.594 97.6827 106.389 96.5502C107.19 95.4429 108.021 94.3411 108.881 93.2446C109.748 92.1733 110.586 91.0967 111.395 90.0148C112.204 88.9328 112.884 87.833 113.436 86.7154C113.988 85.5978 114.353 84.4516 114.531 83.2769C114.735 82.0949 114.652 80.8718 114.283 79.6077C114.268 79.5572 114.235 79.4434 114.183 79.2664C114.124 79.0642 114.075 78.9414 114.035 78.8981C113.902 79.1007 113.627 79.4265 113.209 79.8753C112.784 80.2989 112.328 80.7587 111.842 81.2546C111.374 81.718 110.911 82.1525 110.453 82.5581C109.995 82.9636 109.663 83.2371 109.458 83.3784C109.432 83.3857 109.335 83.4274 109.165 83.5036C109.021 83.5725 108.838 83.6524 108.618 83.7431C108.422 83.8266 108.227 83.9101 108.032 83.9935C107.83 84.0517 107.665 84.099 107.539 84.1354C106.341 84.2604 105.467 84.0868 104.917 83.6144C104.361 83.1168 104.053 82.438 103.994 81.5781C103.935 80.7182 104.076 79.7458 104.418 78.6611C104.778 77.5439 105.266 76.4444 105.883 75.3628C106.518 74.2487 107.246 73.2175 108.067 72.2692C108.905 71.2883 109.765 70.5207 110.646 69.9662C111.544 69.3791 112.424 69.0577 113.286 69.0019C114.166 68.9135 114.955 69.221 115.654 69.9244C116.116 70.9426 116.407 71.9412 116.529 72.9202C116.642 73.874 116.702 74.8297 116.707 75.7873C116.712 76.7449 116.721 77.7151 116.734 78.698C116.739 79.6556 116.871 80.6726 117.13 81.7489L117.472 81.6507C117.58 81.4554 117.755 81.1172 117.999 80.6362C118.268 80.1478 118.546 79.6432 118.833 79.1223C119.138 78.5689 119.428 78.0606 119.705 77.5976C119.974 77.1093 120.162 76.7674 120.27 76.5721C120.323 76.4744 120.446 76.3297 120.637 76.1378C120.853 75.9386 121.012 75.8245 121.113 75.7954L121.146 75.9092L121.168 75.985C121.176 76.0103 121.192 76.0193 121.217 76.012C121.483 76.9222 121.461 77.8328 121.15 78.744C120.866 79.648 120.452 80.5341 119.91 81.4023C119.368 82.2706 118.785 83.0956 118.163 83.8772C117.548 84.6842 117.052 85.4295 116.676 86.1132C116.504 87.1217 116.356 88.356 116.234 89.8161C116.119 91.3015 115.975 92.8773 115.803 94.5435C115.638 96.235 115.401 97.9609 115.092 99.7213C114.816 101.5 114.401 103.181 113.848 104.765C113.321 106.341 112.637 107.757 111.796 109.012C110.963 110.293 109.903 111.269 108.617 111.94C107.959 112.129 107.367 112.121 106.841 111.916C106.289 111.718 105.813 111.403 105.413 110.97C105.019 110.563 104.683 110.07 104.405 109.492C104.134 108.94 103.921 108.398 103.766 107.867ZM106.376 109.337C106.719 109.759 107.044 109.981 107.352 110.002C107.66 110.023 107.991 109.983 108.346 109.881C109.004 109.692 109.626 109.143 110.211 108.235C110.796 107.327 111.323 106.216 111.79 104.904C112.29 103.609 112.715 102.199 113.066 100.674C113.416 99.148 113.689 97.6858 113.884 96.287C114.105 94.8809 114.228 93.6123 114.255 92.4812C114.314 91.3681 114.27 90.5587 114.122 90.0531C114.107 90.0025 114.069 89.9177 114.007 89.7986C113.977 89.6974 113.955 89.6216 113.94 89.571C113.879 89.6434 113.724 89.7702 113.475 89.9513C113.259 90.1505 113.133 90.2826 113.097 90.3477C112.263 91.4369 111.311 92.642 110.243 93.9629C109.207 95.3019 108.285 96.7039 107.479 98.1689C106.646 99.6411 106.03 101.147 105.629 102.687C105.235 104.253 105.263 105.807 105.714 107.349C105.736 107.425 105.776 107.564 105.835 107.766C105.894 107.968 105.966 108.167 106.05 108.362C106.109 108.564 106.177 108.75 106.254 108.92C106.313 109.122 106.354 109.261 106.376 109.337ZM113.357 71.0778C112.952 71.1941 112.461 71.4859 111.884 71.9532C111.3 72.3951 110.694 72.9527 110.068 73.626C109.467 74.292 108.871 75.0249 108.282 75.8246C107.692 76.6242 107.173 77.431 106.725 78.2449C106.302 79.0515 105.993 79.8254 105.797 80.5666C105.602 81.3077 105.582 81.9437 105.737 82.4746C106.269 82.3219 106.885 82.0353 107.585 81.6148C108.278 81.1691 108.978 80.6528 109.684 80.0661C110.409 79.4469 111.106 78.7807 111.776 78.0676C112.438 77.3292 113.005 76.5909 113.475 75.8529C113.971 75.1076 114.336 74.386 114.572 73.6881C114.807 72.9903 114.843 72.3633 114.681 71.8071C114.482 71.1245 114.04 70.8814 113.357 71.0778Z" fill="white"/>
</svg>
